<svg xmlns="http://www.w3.org/2000/svg" width="404" height="399" viewBox="0 0 404 399">
    <defs>
        <linearGradient id="a" x1="0%" y1="50.017%" y2="50.017%">
            <stop offset="0%" stop-color="#08AEEA"/>
            <stop offset="20%" stop-color="#0CB7E0"/>
            <stop offset="56%" stop-color="#18CFC4"/>
            <stop offset="100%" stop-color="#2AF598"/>
        </linearGradient>
        <linearGradient id="b" x1="0%" y1="50.01%" y2="50.01%">
            <stop offset="0%" stop-color="#08AEEA"/>
            <stop offset="20%" stop-color="#0CB7E0"/>
            <stop offset="56%" stop-color="#18CFC4"/>
            <stop offset="100%" stop-color="#2AF598"/>
        </linearGradient>
        <linearGradient id="c" x1="88.48%" x2="13.2%" y1="68.96%" y2="34.278%">
            <stop offset="0%" stop-color="#08AEEA"/>
            <stop offset="20%" stop-color="#0CB7E0"/>
            <stop offset="56%" stop-color="#18CFC4"/>
            <stop offset="100%" stop-color="#2AF598"/>
        </linearGradient>
        <linearGradient id="d" x1="101.329%" x2="-1.881%" y1="62.916%" y2="38.844%">
            <stop offset="0%" stop-color="#08AEEA"/>
            <stop offset="20%" stop-color="#0CB7E0"/>
            <stop offset="56%" stop-color="#18CFC4"/>
            <stop offset="100%" stop-color="#2AF598"/>
        </linearGradient>
        <linearGradient id="e" x1="55.962%" x2="44.472%" y1="-4.096%" y2="91.752%">
            <stop offset="0%" stop-color="#FFCB9D"/>
            <stop offset="34%" stop-color="#FFC89C"/>
            <stop offset="63%" stop-color="#FFBD99"/>
            <stop offset="90%" stop-color="#FFAC94"/>
            <stop offset="100%" stop-color="#FFA392"/>
        </linearGradient>
        <linearGradient id="f" x1="54.232%" x2="45.3%" y1="-6.25%" y2="103.058%">
            <stop offset="0%" stop-color="#FFCB9D"/>
            <stop offset="34%" stop-color="#FFC89C"/>
            <stop offset="63%" stop-color="#FFBD99"/>
            <stop offset="90%" stop-color="#FFAC94"/>
            <stop offset="100%" stop-color="#FFA392"/>
        </linearGradient>
        <linearGradient id="g" x1="51.34%" x2="48.995%" y1="16.689%" y2="75.31%">
            <stop offset="0%" stop-color="#FFCB9D"/>
            <stop offset="34%" stop-color="#FFC89C"/>
            <stop offset="63%" stop-color="#FFBD99"/>
            <stop offset="90%" stop-color="#FFAC94"/>
            <stop offset="100%" stop-color="#FFA392"/>
        </linearGradient>
        <linearGradient id="h" x1="51.32%" x2="48.555%" y1="-5.387%" y2="91.362%">
            <stop offset="0%" stop-color="#A24B47"/>
            <stop offset="14%" stop-color="#B94B47"/>
            <stop offset="37%" stop-color="#D74B47"/>
            <stop offset="59%" stop-color="#ED4B47"/>
            <stop offset="81%" stop-color="#FB4B47"/>
            <stop offset="100%" stop-color="#FF4B47"/>
        </linearGradient>
        <linearGradient id="i" x1="50.879%" x2="48.603%" y1="-5.692%" y2="91.754%">
            <stop offset="0%" stop-color="#FF5E42"/>
            <stop offset="100%" stop-color="#FFE303"/>
        </linearGradient>
        <linearGradient id="j" x1="50.447%" x2="49.111%" y1="39.019%" y2="58.355%">
            <stop offset="0%" stop-color="#A24B47"/>
            <stop offset="14%" stop-color="#B94B47"/>
            <stop offset="37%" stop-color="#D74B47"/>
            <stop offset="59%" stop-color="#ED4B47"/>
            <stop offset="81%" stop-color="#FB4B47"/>
            <stop offset="100%" stop-color="#FF4B47"/>
        </linearGradient>
        <linearGradient id="k" x1="50.267%" x2="49.612%" y1="-4.098%" y2="90.84%">
            <stop offset="0%" stop-color="#142F9B"/>
            <stop offset="22%" stop-color="#14329C"/>
            <stop offset="38%" stop-color="#133BA0"/>
            <stop offset="52%" stop-color="#114BA5"/>
            <stop offset="64%" stop-color="#0E60AE"/>
            <stop offset="76%" stop-color="#0B7DB8"/>
            <stop offset="87%" stop-color="#06A0C5"/>
            <stop offset="97%" stop-color="#01C8D5"/>
            <stop offset="100%" stop-color="#00D4D9"/>
        </linearGradient>
        <linearGradient id="l" x1="50.9%" x2="49.386%" y1="-3.601%" y2="90.441%">
            <stop offset="0%" stop-color="#142F9B"/>
            <stop offset="22%" stop-color="#14329C"/>
            <stop offset="38%" stop-color="#133BA0"/>
            <stop offset="52%" stop-color="#114BA5"/>
            <stop offset="64%" stop-color="#0E60AE"/>
            <stop offset="76%" stop-color="#0B7DB8"/>
            <stop offset="87%" stop-color="#06A0C5"/>
            <stop offset="97%" stop-color="#01C8D5"/>
            <stop offset="100%" stop-color="#00D4D9"/>
        </linearGradient>
        <linearGradient id="m" x1="51.89%" x2="49.336%" y1="-3.59%" y2="91.293%">
            <stop offset="0%" stop-color="#FF5E42"/>
            <stop offset="100%" stop-color="#FFE303"/>
        </linearGradient>
        <linearGradient id="n" x1="54.741%" x2="48.761%" y1="-.617%" y2="89.74%">
            <stop offset="0%" stop-color="#FFA392"/>
            <stop offset="10%" stop-color="#FFAC94"/>
            <stop offset="37%" stop-color="#FFBD99"/>
            <stop offset="66%" stop-color="#FFC89C"/>
            <stop offset="100%" stop-color="#FFCB9D"/>
        </linearGradient>
        <linearGradient id="o" x1="52.028%" x2="50.465%" y1="-51.393%" y2="40.054%">
            <stop offset="0%" stop-color="#FFA392"/>
            <stop offset="10%" stop-color="#FFAC94"/>
            <stop offset="37%" stop-color="#FFBD99"/>
            <stop offset="66%" stop-color="#FFC89C"/>
            <stop offset="100%" stop-color="#FFCB9D"/>
        </linearGradient>
        <linearGradient id="p" x1="50.149%" x2="47.857%" y1="-38.938%" y2="55.634%">
            <stop offset="0%" stop-color="#FFA392"/>
            <stop offset="10%" stop-color="#FFAC94"/>
            <stop offset="37%" stop-color="#FFBD99"/>
            <stop offset="66%" stop-color="#FFC89C"/>
            <stop offset="100%" stop-color="#FFCB9D"/>
        </linearGradient>
        <linearGradient id="q" x1="53.864%" x2="44.672%" y1="-6.956%" y2="91.934%">
            <stop offset="0%" stop-color="#263C5F"/>
            <stop offset="1%" stop-color="#283C5F"/>
            <stop offset="17%" stop-color="#463C5F"/>
            <stop offset="35%" stop-color="#5D3C5F"/>
            <stop offset="54%" stop-color="#6E3C5F"/>
            <stop offset="74%" stop-color="#783C5F"/>
            <stop offset="100%" stop-color="#7B3C5F"/>
        </linearGradient>
        <linearGradient id="r" x1="51.225%" x2="49.286%" y1="26.164%" y2="68.498%">
            <stop offset="0%" stop-color="#142F9B"/>
            <stop offset="22%" stop-color="#14329C"/>
            <stop offset="38%" stop-color="#133BA0"/>
            <stop offset="52%" stop-color="#114BA5"/>
            <stop offset="64%" stop-color="#0E60AE"/>
            <stop offset="76%" stop-color="#0B7DB8"/>
            <stop offset="87%" stop-color="#06A0C5"/>
            <stop offset="97%" stop-color="#01C8D5"/>
            <stop offset="100%" stop-color="#00D4D9"/>
        </linearGradient>
        <linearGradient id="s" x1="51.212%" x2="49.422%" y1="-3.698%" y2="90.834%">
            <stop offset="0%" stop-color="#FF5E42"/>
            <stop offset="100%" stop-color="#FFE303"/>
        </linearGradient>
        <linearGradient id="t" x1="52.545%" x2="47.383%" y1="28.933%" y2="68.053%">
            <stop offset="0%" stop-color="#FF5E42"/>
            <stop offset="100%" stop-color="#FFE303"/>
        </linearGradient>
        <linearGradient id="u" x1="50.561%" x2="49.439%" y1="41.676%" y2="56.581%">
            <stop offset="0%" stop-color="#FFCB9D"/>
            <stop offset="34%" stop-color="#FFC89C"/>
            <stop offset="63%" stop-color="#FFBD99"/>
            <stop offset="90%" stop-color="#FFAC94"/>
            <stop offset="100%" stop-color="#FFA392"/>
        </linearGradient>
    </defs>
    <g fill="none" fill-rule="evenodd">
        <ellipse cx="140.212" cy="385.661" fill="#ECF4FF" fill-rule="nonzero" rx="35.172" ry="12.691"/>
        <path fill="#ECF4FF" fill-rule="nonzero" d="M391.304 296.629c-51.755 88.104-176.257 110.936-278.112 51.032-101.855-59.904-142.462-180-90.698-268.104C74.26-8.547 122.37 82.484 224.18 142.424s218.88 66.1 167.124 154.205z" opacity=".3"/>
        <path d="M301.66 323.875l-3.924-46.475 76.328 19.049 3.914 46.475z"/>
        <path fill="url(#a)" fill-rule="nonzero" d="M324.64 294.566a48.757 48.757 0 0 0-25.401.631c13.991 26.723 32.977 36.306 46.383 39.63 9.592 2.396 16.322 1.603 16.322 1.603a92.825 92.825 0 0 0-5.506-14.069 39.03 39.03 0 0 1-17.888-.288c-7.855-1.963-16.547-6.584-25.625-15.555a50.715 50.715 0 0 1 12.434-11.79l-.72-.18"/>
        <path fill="url(#a)" fill-rule="nonzero" d="M324.64 294.566a48.757 48.757 0 0 0-25.401.631c13.991 26.723 32.977 36.306 46.383 39.63 9.592 2.396 16.322 1.603 16.322 1.603a92.825 92.825 0 0 0-5.506-14.069 39.03 39.03 0 0 1-17.888-.288c-7.855-1.963-16.547-6.584-25.625-15.555a50.715 50.715 0 0 1 12.434-11.79l-.72-.18" style="mix-blend-mode:multiply"/>
        <path fill="url(#b)" fill-rule="nonzero" d="M348.466 290.063c-8.998-2.252-17.006.694-23.107 4.684a50.715 50.715 0 0 0-12.434 11.79c9.078 9.006 17.77 13.59 25.625 15.554a39.03 39.03 0 0 0 17.888.288 43.173 43.173 0 0 0 19.003-9.547c-9.439-14.194-18.652-20.715-26.993-22.769"/>
        <path d="M78.973 137.21L67.285 182.35 1.584 139.047 13.28 93.905z"/>
        <path fill="url(#c)" fill-rule="nonzero" d="M47.59 157.231a48.77 48.77 0 0 0 24.167 7.836c-4.346-29.857-19.084-45.196-30.592-52.807-8.251-5.404-14.865-6.917-14.865-6.917a91.96 91.96 0 0 0 .54 15.096 38.981 38.981 0 0 1 16.772 6.205c6.767 4.459 13.434 11.709 19.03 23.184a50.56 50.56 0 0 1-15.638 6.989l.621.414"/>
        <path fill="url(#c)" fill-rule="nonzero" d="M47.59 157.231a48.77 48.77 0 0 0 24.167 7.836c-4.346-29.857-19.084-45.196-30.592-52.807-8.251-5.404-14.865-6.917-14.865-6.917a91.96 91.96 0 0 0 .54 15.096 38.981 38.981 0 0 1 16.772 6.205c6.767 4.459 13.434 11.709 19.03 23.184a50.56 50.56 0 0 1-15.638 6.989l.621.414" style="mix-blend-mode:multiply"/>
        <path fill="url(#d)" fill-rule="nonzero" d="M23.62 153.574c7.764 5.116 16.276 4.99 23.393 3.243a50.56 50.56 0 0 0 15.638-6.99c-5.641-11.474-12.263-18.724-19.075-23.183a38.981 38.981 0 0 0-16.772-6.205 43.06 43.06 0 0 0-21.09 2.702c4.202 16.518 10.734 25.705 17.905 30.433"/>
        <path fill="#ECF4FF" fill-rule="nonzero" d="M335.275 396.757L44.935 229.231a3.6 3.6 0 0 1-1.8-3.116V4.503a3.604 3.604 0 0 1 1.819-3.15 3.596 3.596 0 0 1 3.634.043L338.37 170.282a3.603 3.603 0 0 1 1.8 3.107l.08 36.334.424 183.873a3.604 3.604 0 0 1-1.782 3.151 3.596 3.596 0 0 1-3.617.01z"/>
        <path fill="#ECF4FF" fill-rule="nonzero" d="M334.834 206.597L44.934 39.261a3.6 3.6 0 0 1-1.799-3.117V4.504a3.604 3.604 0 0 1 1.819-3.15 3.596 3.596 0 0 1 3.634.042L338.37 170.282a3.603 3.603 0 0 1 1.8 3.107l.072 30.083a3.603 3.603 0 0 1-1.8 3.13 3.596 3.596 0 0 1-3.608-.005z" style="mix-blend-mode:multiply"/>
        <path fill="#ECF4FF" fill-rule="nonzero" d="M77.048 207.876v-31.595a3.6 3.6 0 0 1 5.399-3.117l223.216 129.743a3.6 3.6 0 0 1 1.8 3.116v30.236c0 1.288-.683 2.479-1.797 3.124a3.596 3.596 0 0 1-3.602.001L78.847 211.002a3.607 3.607 0 0 1-1.8-3.126z" opacity=".6" style="mix-blend-mode:multiply"/>
        <path fill="#FFF" fill-rule="nonzero" d="M307.454 230.573v30.236c0 1.288-.683 2.48-1.797 3.124a3.596 3.596 0 0 1-3.602.001l-174.35-100.308-48.858-28.101a3.607 3.607 0 0 1-1.8-3.125v-31.596a3.6 3.6 0 0 1 5.4-3.117l45.258 26.31L305.663 227.43c1.118.65 1.801 1.85 1.791 3.143z"/>
        <path fill="#194B85" fill-rule="nonzero" d="M127.705 123.996v39.63l-48.858-28.101a3.603 3.603 0 0 1-1.8-3.125v-31.596a3.603 3.603 0 0 1 1.802-3.117 3.596 3.596 0 0 1 3.598 0l45.258 26.31z"/>
        <path fill="#FFF" fill-rule="nonzero" d="M112.32 132.877a2.698 2.698 0 0 0-1.8-.63c-.396.108-.567.486-.495 1.134a.784.784 0 0 0 0 .19l1.8 1.152v-.054c0-.207 0-.315.152-.324a.81.81 0 0 1 .477.171c.215.134.397.316.531.532.15.22.243.473.27.738v.342a10.353 10.353 0 0 0-1.863-1c-.458-.18-.8-.17-1.016 0-.216.172-.297.622-.225 1.298a3.954 3.954 0 0 0 1.925 3.017c.294.213.633.354.99.414.247.03.498-.014.72-.126.128.329.31.633.54.9.26.305.562.57.9.784.154.098.316.183.485.253.103.038.208.068.315.09h.135l-.162-1.496-.333-.207a.63.63 0 0 1-.234-.288 1.226 1.226 0 0 1-.117-.414l-.287-2.702a4.235 4.235 0 0 0-.9-2.162 7.2 7.2 0 0 0-1.872-1.675m-5.335-3.405c-.675-.432-1.152-.387-1.431.153l-.261-1.08-1.494-.955 1.026 9.466 1.8 1.17-.342-3.197a4.304 4.304 0 0 0 1.448 1.649c.657.423 1.134.441 1.422.063.34-.732.426-1.556.243-2.342a8.69 8.69 0 0 0-.828-3.044 4.592 4.592 0 0 0-1.61-1.883m-6.839-4.35c-.9-.54-1.484-.666-1.907-.37-.423.298-.567 1.046-.441 2.225.1 1.129.457 2.22 1.044 3.189a6.85 6.85 0 0 0 2.195 2.234c.855.549 1.485.73 1.88.54.396-.19.55-.694.46-1.531l-1.8-1.126c0 .297 0 .495-.135.585-.135.09-.342 0-.648-.153a2.215 2.215 0 0 1-.783-.846 3.687 3.687 0 0 1-.36-1.28l3.6 2.324v-.45a7.923 7.923 0 0 0-.99-3.161 6.689 6.689 0 0 0-2.142-2.18m-6.145-3.918c-.9-.54-1.485-.666-1.908-.36-.423.306-.567 1.045-.432 2.224a7.454 7.454 0 0 0 1.035 3.189 6.85 6.85 0 0 0 2.196 2.234c.9.54 1.484.72 1.88.54.396-.18.558-.694.468-1.531l-1.8-1.135c.036.306-.009.504-.135.594-.126.1-.341 0-.647-.153a2.278 2.278 0 0 1-.783-.846 3.551 3.551 0 0 1-.351-1.28l3.77 2.378-.045-.45a7.787 7.787 0 0 0-.999-3.161 6.635 6.635 0 0 0-2.141-2.189m23.502 15.113l-1.962-1.206 2.7 8.106c0 .576-.252.72-.711.432l-.747-.477.171 1.549c.321.347.687.65 1.089.9.648.415 1.143.487 1.448.217.398-.446.64-1.008.693-1.604l.9-4.917a5.87 5.87 0 0 0-1.647-1.802h-.045l-.36 4.026h-.062l-1.422-5.17m-4.796 2a1.378 1.378 0 0 1-.693-1.045c0-.27.063-.414.297-.414.413.07.802.24 1.134.495l.063.586c0 .279-.045.441-.207.504a.63.63 0 0 1-.594-.126m-5.722-3.918a1.801 1.801 0 0 1-.657-.802 3.858 3.858 0 0 1-.315-1.188v-.433a1.451 1.451 0 0 1 .09-.9c.099-.19.288-.19.558 0 .562.428.894 1.094.9 1.8l.071.694c.1.901-.108 1.18-.638.847m-13.57-10.943c0-.733.28-.913.838-.54.27.17.49.41.639.693.17.302.274.637.305.982l-1.8-1.135m6.137 3.909c0-.73.27-.9.846-.54.266.176.485.414.639.693.165.307.269.644.306.99l-1.8-1.143m-9.348-8.584a.953.953 0 0 0-.774-.207c-.216 0-.36.234-.423.568l-.261-1.216-1.485-.901.738 6.89.081.054a1.465 1.465 0 0 0 1.647.09l-.225-2.035a1.596 1.596 0 0 1 .126-1.081c.135-.171.396-.135.774.108l.593.37-.242-2.18a.981.981 0 0 0-.171-.18 1.61 1.61 0 0 0-.387-.316M279.633 233.356c-.333-.189-.693.054-.801.559-.116.468.045.96.414 1.27.35.198.72-.063.828-.586a1.235 1.235 0 0 0-.414-1.225M282.53 235.077a.45.45 0 0 0-.35-.072.757.757 0 0 0-.487.666c-.067.251-.067.515 0 .766a.99.99 0 0 0 .37.558.459.459 0 0 0 .512 0 .9.9 0 0 0 .324-.55 1.442 1.442 0 0 0-.09-1.026.82.82 0 0 0-.279-.342M293.327 241.85a.432.432 0 0 0-.342-.072.765.765 0 0 0-.494.657c-.088.34-.057.7.09 1.018a.9.9 0 0 0 .288.333.45.45 0 0 0 .35.072.792.792 0 0 0 .495-.657 1.47 1.47 0 0 0-.099-1.018.711.711 0 0 0-.288-.333M287.65 238.211c-.261-.162-.54-.045-.684.288v.117l.98.622.064-.054a1.063 1.063 0 0 0-.37-.973M290.997 239.067l-.774-.487c-.063 0-.099 0-.117.072l-.288 1.243a.135.135 0 0 0 0 .172l.783.486c.279.162.576 0 .666-.46.054-.194.054-.4 0-.594a.793.793 0 0 0-.297-.432M265.848 215.703a.423.423 0 0 0-.198-.063l-4.292-.072a.44.44 0 0 0-.35.225.901.901 0 0 0-.127.54l.54 15.024a.901.901 0 0 0 .342.711c.055.041.121.064.19.064l4.291.063a.414.414 0 0 0 .351-.217.965.965 0 0 0 .126-.54l-.126-3.504a4.558 4.558 0 0 0-2.834-.657l-.234-6.305a4.748 4.748 0 0 1 2.78-1.045l-.099-2.495v-.981a.901.901 0 0 0-.333-.712M283.574 238.68l.756-3.17c0-.073.063-.1.117-.082l.45.288.062.081v.108l-.746 3.17c0 .073-.072.1-.126.073l-.46-.288a.19.19 0 0 1-.053-.18M294.326 246.173a.54.54 0 0 0 .783-.27.559.559 0 0 0 0-.28l-.171-3.377v-.117h.09l.459.288.063.18.099 2.153a.225.225 0 0 0 0 .153s.063 0 .099-.063l.945-1.504h.108l.44.27.054.09v.117l-1.601 2.513c-.585.9-1.017 1.108-1.7.685a.18.18 0 0 1-.055-.171l.135-.568c0-.063.072-.099.117-.063"/>
        <path fill="#FFF" fill-rule="nonzero" d="M286.201 238.49c.072-.543.45-.995.972-1.162a.944.944 0 0 1 .648.145c.231.158.42.372.549.621.298.593.378 1.272.225 1.918 0 .127-.072.217-.153.163l-1.593-1-.072.054a1.1 1.1 0 0 0 .369 1.018c.152.112.36.112.513 0a.117.117 0 0 1 .17 0l.424.26a.162.162 0 0 1 0 .235.9.9 0 0 1-1.332.324 1.953 1.953 0 0 1-.261-.216 2.704 2.704 0 0 1-.522-2.35M292.59 244.588a1.973 1.973 0 0 1-.693-1.08 2.768 2.768 0 0 1 0-1.46c.073-.415.29-.791.612-1.063a.899.899 0 0 1 .962 0c.253.182.44.441.531.739a.117.117 0 0 0 0 .063s.045 0 .054-.045v-.09l.108-.072.441.279a.18.18 0 0 1 .054.18l-.54 2.252c0 .17 0 .279.063.342l.054.162-.144.595-.108.063a.982.982 0 0 1-.495-.757l-.099-.081a.746.746 0 0 1-.836 0M278.931 235.977a1.891 1.891 0 0 1-.71-1.026 2.921 2.921 0 0 1-.055-1.522c.171-.757.63-1.252 1.16-1.261.19.005.373.06.532.162a2 2 0 0 1 .747 1.071 2.795 2.795 0 0 1-.198 2.19.972.972 0 0 1-1.422.413h-.054M275.665 231.771l.063.045 1.376-2.314.117-.054.477.297.054.162-.108 4.972v.108h-.072l-.558-.352-.063-.153.081-3.215-.063-.045-1.376 2.378c-.036.066-.081.084-.135.054l-.324-.207a.19.19 0 0 1-.072-.18l-.054-3.28h-.063l-1.323 2.388h-.108l-.53-.334-.046-.08v-.109l1.98-3.792.117-.054.468.298.072.17.072 3.225M280.73 237.013a.18.18 0 0 1-.053-.18l1.043-4.386c0-.072.072-.1.117-.081l.46.288c.05.049.07.12.053.19l-.297 1.242v.117a.099.099 0 0 0 .072 0 .782.782 0 0 1 .675.081c.706.628.977 1.612.693 2.513-.062.42-.28.8-.612 1.063a.899.899 0 0 1-.954 0 1.486 1.486 0 0 1-.54-.757v-.063s-.054 0-.063.063v.09c0 .072-.063.1-.108.081l-.44-.279M285.526 240.067c-.603-.388-.782-.838-.567-1.739l.801-3.36c0-.062.063-.098.117-.071l.46.288a.207.207 0 0 1 .053.18l-.81 3.378c-.045.225 0 .405.144.504l.054.08v.109l-.126.558c0 .063-.072.1-.126.073M288.667 242.003a.198.198 0 0 1-.054-.19l1.043-4.385c0-.073.063-.1.117-.073l1.449.901c.71.506 1.014 1.41.756 2.243-.234.964-.9 1.243-1.52.837l-.775-.486h-.072v.09l-.306 1.288c0 .063-.072.1-.126.072l-.476-.297M284.77 235.176a.748.748 0 0 1-.233-.757c.072-.279.287-.414.485-.288.215.18.307.468.234.739-.072.297-.288.432-.485.306M261.565 232.897a1.928 1.928 0 0 1-.729-1.55l-.548-15.022c0-.901.44-1.658 1.034-1.649l4.292.072a.755.755 0 0 1 .423.136c.146.093.272.216.37.36.23.354.357.766.368 1.189l.126 3.467c.897.022 1.772.28 2.537.748.187.116.364.245.531.387l.117 3.153c.408.447.758.943 1.044 1.477l-1.287 5.404a8.328 8.328 0 0 0-2.636-2.82l.08 2.162v.991c0 .9-.431 1.657-1.034 1.648l-4.292-.072a.827.827 0 0 1-.423-.126"/>
        <path fill="#5A78FF" fill-rule="nonzero" d="M266.037 214.884a.755.755 0 0 0-.423-.136l-4.292-.072c-.594 0-1.061.73-1.034 1.649l.548 15.023a1.928 1.928 0 0 0 .73 1.55c.126.079.272.122.422.125l4.292.072c.603 0 1.07-.73 1.035-1.648v-.99h-.585l-.099-2.514.126 3.504a.965.965 0 0 1-.126.54.414.414 0 0 1-.35.217l-4.293-.063a.315.315 0 0 1-.189-.064.901.901 0 0 1-.342-.711l-.54-15.023a.901.901 0 0 1 .126-.54.44.44 0 0 1 .351-.226l4.292.072c.07.004.138.026.198.063a.901.901 0 0 1 .333.712v.981h.576l.099 2.486-.126-3.467a2.29 2.29 0 0 0-.369-1.19 1.27 1.27 0 0 0-.369-.36"/>
        <path fill="#5667D2" fill-rule="nonzero" d="M263.76 227.277l-.35-6.602a5.637 5.637 0 0 1 6.415.18l-.738 9.16a14.697 14.697 0 0 0-5.326-2.738z"/>
        <path fill="#5A78FF" fill-rule="nonzero" d="M291.222 238.265l-1.449-.9c-.054 0-.099 0-.117.072l-1.043 4.386a.198.198 0 0 0 .054.189l.476.297c.054 0 .1 0 .126-.072l.306-1.288v-.09h.153l.774.486c.639.406 1.287.127 1.52-.837a2.019 2.019 0 0 0-.8-2.243zm.09 1.802c-.09.423-.387.621-.666.459l-.783-.487a.135.135 0 0 1 0-.17l.288-1.244c0-.08.054-.108.117-.072l.774.487c.145.106.25.258.297.432.05.206.04.421-.027.622v-.027zM277.221 229.448l-.117.054-1.376 2.314-.063-.045-.072-3.224-.072-.171-.468-.298-.117.055-1.98 3.791v.108l.045.082.531.333h.108l1.287-2.46h.063l.054 3.28a.19.19 0 0 0 .072.18l.324.207a.183.183 0 0 0 .135-.054l1.376-2.378.063.045-.08 3.215.062.153.558.352h.072v-.108l.108-4.972-.054-.162-.459-.297zM284.77 235.176c.198.126.414 0 .486-.306a.721.721 0 0 0-.234-.739c-.198-.126-.413 0-.485.288a.748.748 0 0 0 .234.757zM268.332 222.737l-.162-.108a4.945 4.945 0 0 0-3.123-.801l-1.286 5.449a4.558 4.558 0 0 1 2.834.657c.152.079.3.166.44.262l.163.09a8.328 8.328 0 0 1 2.636 2.819l1.287-5.404a7.313 7.313 0 0 0-1.044-1.477 8.505 8.505 0 0 0-1.745-1.487zM297.35 243.543l-.441-.27h-.108l-.945 1.504c0 .054-.072.081-.1.063a.225.225 0 0 1 0-.153l-.098-2.153-.063-.18-.46-.288h-.089v.117l.17 3.378a.559.559 0 0 1 0 .279.54.54 0 0 1-.782.27c-.045 0-.099 0-.117.063l-.135.568a.171.171 0 0 0 .063.17c.675.424 1.107.235 1.692-.684l1.601-2.513v-.117l-.189-.054zM280.632 233.392a2 2 0 0 0-.747-1.071 1.043 1.043 0 0 0-.531-.162c-.531 0-.99.504-1.16 1.26a2.921 2.921 0 0 0 .053 1.523c.105.412.346.777.684 1.035h.054a.97.97 0 0 0 1.422-.414 2.795 2.795 0 0 0 .225-2.17zm-.585 1.19c-.108.522-.477.783-.828.585a1.262 1.262 0 0 1-.414-1.27c.108-.505.468-.748.8-.559.375.295.547.779.442 1.243zM288.37 238.094a1.702 1.702 0 0 0-.55-.621.944.944 0 0 0-.647-.145c-.521.167-.9.62-.972 1.162a2.704 2.704 0 0 0 .522 2.351c.08.08.168.152.261.216a.9.9 0 0 0 1.332-.324.162.162 0 0 0 0-.234l-.423-.261a.117.117 0 0 0-.171 0 .432.432 0 0 1-.513 0 1.1 1.1 0 0 1-.369-1.018l.072-.054 1.593 1c.08.054.126 0 .153-.163.131-.65.03-1.326-.288-1.909zm-.414 1.144l-.981-.622v-.117c.144-.333.423-.45.684-.288.284.238.424.606.369.973l-.072.054zM294.272 244.768l-.054-.162c-.08-.063-.099-.171-.063-.342l.54-2.252a.18.18 0 0 0-.054-.18l-.44-.28-.109.073v.09c0 .045 0 .063-.054.045a.117.117 0 0 1 0-.063 1.423 1.423 0 0 0-.53-.739.899.899 0 0 0-.963 0 1.802 1.802 0 0 0-.612 1.063c-.13.478-.13.981 0 1.46.101.425.346.804.693 1.07a.746.746 0 0 0 .836 0l.1.082c.032.318.216.6.494.757l.108-.064.108-.558zm-.549-1.567a.792.792 0 0 1-.495.657.45.45 0 0 1-.35-.072.9.9 0 0 1-.288-.333 1.524 1.524 0 0 1-.09-1.018.765.765 0 0 1 .494-.657.432.432 0 0 1 .342.072c.13.078.23.194.288.333.15.311.185.665.1 1v.018zM285.724 239.247c-.162-.1-.189-.28-.144-.504l.81-3.378a.207.207 0 0 0-.054-.18l-.459-.288c-.054 0-.099 0-.117.072l-.8 3.36c-.216.9 0 1.35.566 1.738.054 0 .1 0 .126-.073l.126-.558v-.108l-.054-.081zM284.96 235.761l-.064-.08-.45-.289c-.053 0-.098 0-.116.081l-.756 3.17a.19.19 0 0 0 .054.18l.459.289c.054 0 .108 0 .126-.072l.746-3.17v-.109zM282.845 234.284a.782.782 0 0 0-.675-.08.099.099 0 0 1-.072 0v-.118l.297-1.243a.198.198 0 0 0-.054-.19l-.459-.287c-.045 0-.099 0-.117.08l-1.034 4.432a.18.18 0 0 0 .053.18l.441.28c.045 0 .1 0 .108-.082v-.09c0-.054 0-.08.063-.063v.063c.095.304.284.569.54.757a.899.899 0 0 0 .954 0c.332-.264.55-.644.612-1.063a2.397 2.397 0 0 0-.657-2.576zm.063 2.117a.9.9 0 0 1-.324.55.459.459 0 0 1-.513 0 .99.99 0 0 1-.369-.56 1.479 1.479 0 0 1 0-.765.757.757 0 0 1 .486-.666.45.45 0 0 1 .351.072c.127.08.227.196.288.333.155.323.184.692.081 1.036z"/>
        <g fill-rule="nonzero">
            <path fill="#FFF" d="M233.483 211.57c1.854.458 3.06-.217 3.734-2.027l2.502 6.106 5.92 3.486a4.62 4.62 0 0 1-3.77.54 7.716 7.716 0 0 1-1.988-.837l-11.14-6.566a12.607 12.607 0 0 1-4.984-6.026l6.955 4.098c.859.536 1.789.948 2.762 1.225m12.498 7.296l-3.06-7.044 4.104-1.801a10.98 10.98 0 0 1 .747 5.296 5.496 5.496 0 0 1-1.8 3.603m-14.603-11.925a3.03 3.03 0 0 1-.756-.334l-3.986-2.35 1.395-2.414 3.599 2.125c.81.469 1.412 1.252 1.007 2.126-.297.657-.611 1.009-1.25.847m6.253.675c.135-2.702-1.8-4.701-4.616-6.305l-7.81-4.611a4.675 4.675 0 0 1 3.6-.423 7.76 7.76 0 0 1 1.997.837l11.13 6.566a12.525 12.525 0 0 1 4.868 5.737l-5.795-3.413-3.356 1.63m-20.695-23.336l-3.14 23.561 39.932 23.562 3.14-23.57-39.995-23.562"/>
            <path fill="#E7242E" d="M237.217 209.543c-.675 1.8-1.88 2.485-3.734 2.026a10.792 10.792 0 0 1-2.762-1.225l-6.955-4.089a12.607 12.607 0 0 0 4.984 6.026l11.14 6.584c.62.37 1.29.653 1.988.837a4.62 4.62 0 0 0 3.77-.54l-5.93-3.486-2.5-6.106m9.798.468l-4.103 1.801 3.06 7.044a5.496 5.496 0 0 0 1.799-3.603 10.98 10.98 0 0 0-.747-5.296m-18.994-8.106l-1.395 2.414 3.986 2.35c.235.145.49.258.756.334.639.162.953-.19 1.25-.847.405-.9-.198-1.657-1.007-2.126l-3.6-2.125m.756-5.584a4.675 4.675 0 0 0-3.599.423l7.81 4.611c2.772 1.622 4.751 3.603 4.616 6.305l3.356-1.63 5.795 3.413a12.525 12.525 0 0 0-4.868-5.737l-11.13-6.566a7.76 7.76 0 0 0-1.998-.837"/>
        </g>
        <g fill-rule="nonzero">
            <path fill="#FFF" d="M207.498 189.052l-2.034 3.36 2.124 1.342-.09-4.702m-3.96 6.521l-2.699-1.693 5.552-7.962c.183-.279.53-.4.846-.297.134.032.262.087.378.162l2.195 1.396.252 12.51-2.375-1.495v-1.873l-3.303-2.081-.81 1.333m-5.668-6.107c.468.118.9 0 .9-.477s-.19-1.054-1.098-2.234c-.909-1.18-2.033-2.864-1.755-4.458.28-1.594 1.431-2.234 3.033-1.801.681.2 1.328.503 1.916.9.862.561 1.643 1.237 2.322 2.009l-.837 2.098a7.443 7.443 0 0 0-2.456-2.098 1.798 1.798 0 0 0-.396-.144c-.513-.126-.792.072-.846.396-.234 1.306 3.374 3.765 2.88 6.71-.28 1.684-1.423 2.35-3.051 1.946a7.195 7.195 0 0 1-2.052-.901 12.304 12.304 0 0 1-2.762-2.405l.9-2.162a9.064 9.064 0 0 0 2.528 2.378c.24.151.5.267.774.343m-6.028-1.324l-2.574-1.63 3.941-9.863 2.574 1.612-3.941 9.908m-8.998-15.411v-.153a2.09 2.09 0 0 0-.45-1.37 19.807 19.807 0 0 0-2.376-2.557l.108-.288 4.373 2.756c.624.432 1 1.14 1.008 1.9v7.16l3.923-5.935 2.7 1.702-6.011 8.566-2.7-1.711-.584-10.088m-12.408-22.184l-5.183 31.893 54.68 34.514 5.191-31.893-54.706-34.505"/>
            <path fill="#F9C212" d="M180.126 168.427l-.108.288c.866.78 1.66 1.637 2.376 2.558.307.388.467.873.45 1.369v.153l2.7 3.999v-3.71a2.342 2.342 0 0 0-1.009-1.901l-4.409-2.756"/>
            <path fill="#2C68B2" d="M189.44 174.326l-3.915 5.936-.009-3.45-2.663-4 .585 10.089 2.717 1.71 5.992-8.583-2.708-1.702M193.245 176.73l-3.94 9.863 2.573 1.63 3.94-9.88-2.573-1.612M207.588 193.754l-2.124-1.342 2.034-3.36.09 4.702m-.351-8.106a.737.737 0 0 0-.846.297l-5.552 7.962 2.7 1.693.81-1.333 3.302 2.08v1.874l2.375 1.495-.252-12.51-2.195-1.396a1.223 1.223 0 0 0-.378-.162m-8.251-5.161c-1.602-.397-2.763.243-3.032 1.801-.27 1.558.9 3.315 1.754 4.458.855 1.144 1.188 1.802 1.098 2.234-.09.432-.468.595-.9.477a2.914 2.914 0 0 1-.774-.342 9.064 9.064 0 0 1-2.528-2.378l-.9 2.162a12.304 12.304 0 0 0 2.762 2.405c.633.405 1.325.71 2.052.9 1.628.406 2.771-.26 3.05-1.945.495-2.945-3.113-5.404-2.88-6.71.055-.324.334-.522.847-.396.137.032.27.08.396.144a7.443 7.443 0 0 1 2.456 2.098l.837-2.098a11.304 11.304 0 0 0-2.322-2.009 6.898 6.898 0 0 0-1.916-.9"/>
        </g>
        <path d="M131.7 176.533l-4.139-46.403 56.344 14.32 4.148 46.394z"/>
        <path fill="#FF5F00" fill-rule="nonzero" d="M155.904 152.737c-2.078.72-3.599 2.837-4.022 5.98a15.92 15.92 0 0 0 2.034 9.53c2.07-.73 3.599-2.847 4.03-5.99a15.955 15.955 0 0 0-2.042-9.52"/>
        <path fill="#EB001B" fill-rule="nonzero" d="M149.642 147.036c-3.734-1.19-6.964 1.197-7.576 5.962-.693 5.404 2.285 11.934 6.667 14.492a7.87 7.87 0 0 0 1.629.738c1.154.383 2.4.383 3.554 0a15.92 15.92 0 0 1-2.034-9.529c.396-3.143 1.944-5.26 4.022-5.98a13.109 13.109 0 0 0-4.633-4.972 8.319 8.319 0 0 0-1.629-.73"/>
        <path fill="#F79E1B" fill-rule="nonzero" d="M159.459 152.755a5.52 5.52 0 0 0-3.555 0 15.955 15.955 0 0 1 2.043 9.52c-.405 3.143-1.962 5.26-4.031 5.99a13.082 13.082 0 0 0 4.634 4.962 7.87 7.87 0 0 0 1.628.739c3.734 1.18 6.956-1.207 7.576-5.972.702-5.449-2.285-11.934-6.676-14.492a7.32 7.32 0 0 0-1.62-.73M166.49 173.388l-.08.55h.07l.05-.42.05.42h.07l.14-.31-.06.43h.07l.08-.56h-.09l-.16.33v-.46h-.09m-.36-.21v.09l.11.07-.06.47h.06l.07-.46.11.06v-.09l-.29-.17"/>
        <path fill="#FFF" fill-rule="nonzero" d="M310.792 169.372c-1.98-1.279-3.599-.441-3.599 1.865a8.279 8.279 0 0 0 3.6 6.359c1.988 1.188 3.598.35 3.598-1.865a8.513 8.513 0 0 0-3.599-6.359zM298.906 162.563c-1.988-1.279-3.6-.432-3.6 1.874a8.234 8.234 0 0 0 3.6 6.35c1.989 1.197 3.6.36 3.6-1.865a8.54 8.54 0 0 0-3.6-6.359zM287.029 154.808c-1.98-1.27-3.6-.432-3.6 1.874a8.297 8.297 0 0 0 3.6 6.359c1.988 1.188 3.6.35 3.6-1.874a8.55 8.55 0 0 0-3.6-6.359z"/>
        <path fill="#ECF4FF" fill-rule="nonzero" d="M213.211 237.031l-1.214 67.866 23.349 14.294v-72.126z"/>
        <path fill="url(#e)" fill-rule="nonzero" d="M183.878 279.255s8.36-3.756 13.12-7.142c0 0 1.592 8.412-4.347 11.907l-6.532-1.378-2.24-3.387z"/>
        <path fill="url(#f)" fill-rule="nonzero" d="M183.555 279.282l-1.746-7.205s6.244 1.8 5.83 6.61c.028.037-1.304 1.829-4.084.595z"/>
        <path fill="url(#g)" fill-rule="nonzero" d="M149.04 256.495s5.497-3.954 10.293-2.306l-10.744 7.908.45-5.602z"/>
        <path fill="url(#h)" fill-rule="nonzero" d="M122.91 384.733a25.334 25.334 0 0 0-.28 4.999c.083.68.618 1.215 1.296 1.297 1.359.171 3.752.315 5.048-.513a1.35 1.35 0 0 0 .225-.172c.774-.711 5.264-5.17 4.75-11.465 0 0-6.783-1.495-9.258 3.846l-1.781 2.008z"/>
        <path fill="url(#i)" fill-rule="nonzero" d="M115.37 302.7l32.868-28.642.801-17.563-35.064 29.47z"/>
        <path fill="url(#j)" fill-rule="nonzero" d="M146.475 381.788s-2.592 7.16 4.616 7.476c0 0 12.282-3.342 14.468-7.998 0 0-8.827-1.73-13.632.315l-5.452.207z"/>
        <path fill="url(#k)" fill-rule="nonzero" d="M130.279 334.674c-1.395 10.015-4.175 34.613-.234 49.465 0 0-4.544 4.017-7.144 3.558 0 0-10.573-30.227-11.5-71.983a264.417 264.417 0 0 1 .135-15.888l14.757 23.13 4.66 7.295s-.278 1.63-.674 4.423z"/>
        <path fill="url(#k)" fill-rule="nonzero" d="M130.279 334.674c-1.395 10.015-4.175 34.613-.234 49.465 0 0-4.544 4.017-7.144 3.558 0 0-10.573-30.227-11.5-71.983a264.417 264.417 0 0 1 .135-15.888l14.757 23.13 4.66 7.295s-.278 1.63-.674 4.423z" style="mix-blend-mode:multiply"/>
        <path fill="url(#l)" fill-rule="nonzero" d="M154.483 381.59c-3.6 2.234-8.053 1.378-8.053 1.378-11.607-26.885-12.066-46.475-12.066-46.475a13.076 13.076 0 0 1-4.085-1.801c-6.37-4.026-13.389-13.114-16.196-16.933a84.267 84.267 0 0 1-1.242-1.747c-.9-.73-1.359-3.216-1.512-6.035a88.354 88.354 0 0 1 .198-10.133l30.593 9.007 4.418 12.69 3.257 9.278c4.31 11.546 4.688 50.77 4.688 50.77z"/>
        <path fill="#FFF" fill-rule="nonzero" d="M141.022 266.15l18.76-12.258a1.798 1.798 0 0 1 1.638-.171l36.585 14.303a1.801 1.801 0 0 1 .36 3.16l-26.094 17.771a1.798 1.798 0 0 1-2.015 0l-29.234-19.815a1.802 1.802 0 0 1 0-2.99z"/>
        <path fill="url(#m)" fill-rule="nonzero" d="M111.626 253.784s-10.446 5.728-6.02 33.172c0 0 8.909 12.159 31.763-2.585l-25.743-30.587z"/>
        <path fill="url(#n)" fill-rule="nonzero" d="M120.435 258.044c.473-2.237.73-4.514.765-6.8.459-8.151.513-20.328.513-20.328l11.769 16.392a9.277 9.277 0 0 0-.135 5.62c.878 2.6 2.549 4.86 4.778 6.458l-17.69-1.342z"/>
        <path fill="url(#o)" fill-rule="nonzero" d="M133.347 252.928a27.418 27.418 0 0 1-12.147-1.64c.459-8.15.513-20.327.513-20.327l11.769 16.392a9.277 9.277 0 0 0-.135 5.575z" opacity=".3" style="mix-blend-mode:multiply"/>
        <path fill="url(#p)" fill-rule="nonzero" d="M121.713 230.916c.756-10.034 2.447-12.682 10.878-14.222 8.638-1.576 15.8 5.521 15.044 15.555-.431 5.719-2.24 13.384-6.1 16.446-2.906 2.306-7.36.81-11.121.522-8.746-.63-9.457-8.268-8.701-18.301z"/>
        <path fill="url(#q)" fill-rule="nonzero" d="M147.617 214.73a3.888 3.888 0 0 1-2.51 2.036c.162-2.36-2.186-4.287-2.186-4.287a5.032 5.032 0 0 1-3.006 2.792l-.117-.126c-8.997-6.845-17.023 1.603-17.023 1.603-7.298 8.358-3.833 21.616-2.484 25.76a6.55 6.55 0 0 0 1.503 2.521c4.499 4.684 7.99 1.883 7.99 1.883.459-7.386 5.399-8.926 5.399-8.926a3.896 3.896 0 0 1-3.168-2.333 3.822 3.822 0 0 1 .18-3.837c1.899-2.792 5.57.27 5.57.27 0-4.764 4.787-6.935 4.787-6.935 10.545.018 5.065-10.42 5.065-10.42z"/>
        <path fill="url(#r)" fill-rule="nonzero" d="M146.538 321.542a39.346 39.346 0 0 1-20.245 1.414 34.075 34.075 0 0 1-12.201-5.188 36.926 36.926 0 0 1-2.7-2.027 259.34 259.34 0 0 1-.063-5.755 88.354 88.354 0 0 1 .198-10.133l30.593 9.007 4.418 12.682z" opacity=".8" style="mix-blend-mode:multiply"/>
        <path fill="url(#s)" fill-rule="nonzero" d="M115.558 253.297s8.404 5.08 28.451 4.297c2.79-.108-2.843 19.815-2.798 22.589.189 11.934-2.348 19.76 7.027 35.126 0 0-22.548 10.43-36.675-3.71.01-.028-10.563-63.913 3.995-58.302z"/>
        <path fill="url(#t)" fill-rule="nonzero" d="M137.441 267.501c-.153-4.728.9-12.267 9.898-8.53l21.522 23.094 15.053-2.837s5.066 3.828 8.773 4.765l-30.115 10.34-22.495-21.527a7.208 7.208 0 0 1-2.636-5.305z"/>
        <path fill="url(#u)" fill-rule="nonzero" d="M151.774 256.963l2.7 1.865 5.56-.901s-6.01 6.07-10.428 1.495l2.168-2.459z"/>
        <path fill="#000" fill-rule="nonzero" d="M173.576 265.619l-2.807-1.1-7.198 4.973 1.16.45 2.466-1.693 1.601.63a5.502 5.502 0 0 0 4.868-.666c1.413-.973 1.359-2.027-.081-2.594m-8.098-1.72c-.63-.244-1.53-.199-1.8-.325s-.45-.54-.971-.738a4.495 4.495 0 0 0-2.646 0 5.058 5.058 0 0 0-3.428 2.909c-.135.46-.26.973.261 1.18.531.189 1.026.054 1.647.297.62.243.477.522.999.73a4.378 4.378 0 0 0 2.204-.172c.565-.14 1.119-.324 1.656-.55 0 0-.666-.702.503-1.521a4.684 4.684 0 0 1 2.367-.685c.216-.657-.459-1-.702-1.117h-.09m11.355 5.071a4.495 4.495 0 0 0-3.788.261l1.044.406a2.355 2.355 0 0 1 1.8-.081c.71.279.782.657.197 1.062l-.395.28-1.54-.514a4.018 4.018 0 0 0-3.598.252c-.9.64-.801 1.36.279 1.802.853.28 1.774.28 2.627 0l-.9.594 1.071.424 3.6-2.477c1.043-.712.899-1.513-.469-2.036m7.711 3.099l-1.178-.46-5.624 2.396 2.897-3.468-1.205-.477-3.294 4.395-.422.171a2.13 2.13 0 0 1-1.728.136l-.324-.145-.9.595c.054 0 .333.162.423.198 1.125.441 2.079.36 3.797-.333l7.55-3m-12.517-.117c-.62-.243-.72-.594-.287-.9a2.077 2.077 0 0 1 1.862-.09l1.359.45-.405.28a2.868 2.868 0 0 1-2.529.251m-3.923-4.35l2.862-1.972 1.34.522c1.008.396 1.062.982.153 1.603a3.192 3.192 0 0 1-3.023.37l-1.332-.523m-.638-4.963a4.063 4.063 0 0 0-1.8-.063c-.59.09-1.152.319-1.638.667h.081c.545.16 1.12.179 1.674.054a4.002 4.002 0 0 0 1.683-.694"/>
    </g>
</svg>
